<svg width="561" height="132" xmlns="http://www.w3.org/2000/svg">
 <g>
  <title>Layer 1</title>
  <g id="svg_4">
   <desc fill="#B1FFFF">Created with Fabric.js 5.2.4</desc>
   <g transform="matrix(1, 0, 0, 1, 250, 75)" id="svg_3"/>
   <g id="svg_2"/>
   <g id="svg_7" transform="matrix(0.2, 0, 0, 0.2, 93.24, 75)">
    <g id="svg_8" vector-effect="non-scaling-stroke">
     <g id="svg_9" transform="matrix(1.85, 0, 0, 1.85, 0, 0)">
      <path id="svg_10" vector-effect="non-scaling-stroke" d="m180.3378,-34.37145c-13.844,-35.103 -36.991,-65.519 -66.941,-87.96c-30.127,-22.573 -65.671,-35.893 -102.892,-38.575l-76.768,-38.814c-0.151,-0.077 -0.306,-0.149 -0.462,-0.216c-3.47,-1.485 -7.017,-2.237 -10.543,-2.237c-14.239,0 -24.978,11.991 -24.978,27.892c0,10.259 4.691,19.05 10.124,29.228c0.684,1.282 1.377,2.581 2.075,3.908c-32.079,15.982 -59.87,41.013 -79.482,71.591l-52.46,-32.163c-0.331,-0.203 -0.677,-0.381 -1.034,-0.535c-2.722,-1.165 -5.516,-1.755 -8.304,-1.755c-11.31,-0.001 -19.838,9.401 -19.838,21.869c0,14.541 16.277,39.445 24.2,50.704c-7.923,11.258 -24.2,36.162 -24.2,50.703c0,12.468 8.528,21.87 19.838,21.87c2.788,0 5.583,-0.591 8.306,-1.756c0.356,-0.153 0.702,-0.332 1.033,-0.534l52.455,-32.159c19.558,30.612 46.449,54.973 78.465,71.083c-0.529,1.035 -1.053,2.053 -1.571,3.059c-5.154,10.002 -9.605,18.641 -9.605,28.586c0,15.899 10.737,27.89 24.977,27.891c0.001,0 0.002,0 0.003,0c3.524,0 7.071,-0.753 10.541,-2.238c0.164,-0.07 0.326,-0.146 0.484,-0.227l71.589,-36.48c77.367,-3.531 145.924,-53.162 174.989,-126.865c0.742,-1.886 0.742,-3.984 -0.001,-5.87zm-109.224,100.502c-22.115,-23.023 -35.251,-59.884 -35.251,-99.28c0,-18.159 2.696,-35.639 8.013,-51.953c1.369,-4.201 -0.927,-8.716 -5.128,-10.085c-4.199,-1.366 -8.716,0.926 -10.085,5.127c-5.839,17.918 -8.8,37.065 -8.8,56.911c0,40.908 13.128,79.621 35.47,105.676c-16.634,5.839 -34.237,9.262 -52.351,9.921c-1.163,0.042 -2.304,0.338 -3.341,0.867l-72.881,37.139c-1.392,0.568 -2.745,0.856 -4.027,0.856c0,0 0,0 -0.001,0c-5.202,0 -8.978,-5.001 -8.978,-11.891c0,-6.066 3.283,-12.438 7.828,-21.258c1.637,-3.177 3.492,-6.778 5.344,-10.689c0.917,-1.939 1.018,-4.167 0.278,-6.181c-0.74,-2.014 -2.258,-3.646 -4.213,-4.531c-34.721,-15.705 -63.414,-41.679 -82.976,-75.116c-1.086,-1.856 -2.873,-3.197 -4.959,-3.72c-0.643,-0.161 -1.295,-0.24 -1.946,-0.24c-1.463,0 -2.912,0.402 -4.182,1.18l-58.691,35.982c-0.556,0.195 -1.081,0.293 -1.565,0.293c-2.26,0 -3.838,-2.414 -3.838,-5.87c0,-8.872 14.32,-32.206 24.489,-45.942c2.094,-2.828 2.094,-6.694 0,-9.522c-10.168,-13.736 -24.488,-37.071 -24.488,-45.943c0,-3.457 1.578,-5.87 3.839,-5.87c0.484,0 1.009,0.098 1.565,0.292l58.689,35.982c1.833,1.125 4.042,1.462 6.128,0.939c2.086,-0.523 3.873,-1.864 4.959,-3.72c19.498,-33.326 49.344,-60.172 84.041,-75.594c1.979,-0.879 3.516,-2.522 4.262,-4.555c0.745,-2.032 0.636,-4.28 -0.305,-6.23c-2.07,-4.294 -4.168,-8.226 -6.02,-11.694c-4.783,-8.962 -8.239,-15.438 -8.239,-21.695c0,-6.891 3.775,-11.892 8.978,-11.892c1.285,0 2.644,0.289 4.039,0.859l77.963,39.418c0.966,0.489 2.021,0.776 3.103,0.845c15.503,0.985 30.701,3.987 45.277,8.875c-3.864,4.778 -7.465,9.967 -10.75,15.523c-2.248,3.803 -0.988,8.709 2.815,10.958c1.277,0.756 2.68,1.115 4.063,1.115c2.735,0 5.401,-1.404 6.895,-3.93c3.822,-6.464 8.103,-12.343 12.751,-17.526c12.271,5.459 23.981,12.317 34.914,20.509c26.739,20.035 47.596,46.987 60.466,78.091c-18.253,44.12 -51.968,78.552 -93.154,97.569z" stroke-linecap=" butt" stroke=" none" stroke-dasharray=" none" stroke-dashoffset="0" stroke-linejoin=" miter" stroke-miterlimit="4" fill="#B1FFFF" fill-rule=" nonzero"/>
     </g>
     <g id="svg_11" transform="matrix(1.85, 0, 0, 1.85, 237.06, -42.86)">
      <path id="svg_12" vector-effect="non-scaling-stroke" d="m-35.13423,-56.24741c-13.132,0 -23.815,10.684 -23.815,23.816c0,13.132 10.684,23.816 23.815,23.816c13.131,0 23.815,-10.684 23.815,-23.816c0,-13.132 -10.684,-23.816 -23.815,-23.816zm0,31.632c-4.31,0 -7.815,-3.506 -7.815,-7.816c0,-4.31 3.506,-7.816 7.815,-7.816c4.309,0 7.815,3.506 7.815,7.816c0,4.31 -3.506,7.816 -7.815,7.816z" stroke-linecap=" butt" stroke=" none" stroke-dasharray=" none" stroke-dashoffset="0" stroke-linejoin=" miter" stroke-miterlimit="4" fill="#B1FFFF" fill-rule=" nonzero"/>
     </g>
    </g>
   </g>
   <g transform="matrix(0.74, 0, 0, 0.74, 308.72, 75)" id="svg_1">
    <text x="71.43242" y="83.78377" id="svg_13" xml:space="preserve" font-family="Alegreya" font-size="80" font-style="normal" font-weight="700" stroke=" none" stroke-dasharray=" none" stroke-linecap=" butt" stroke-dashoffset="0" stroke-linejoin=" miter" stroke-miterlimit="4" fill="#B1FFFF" fill-rule=" nonzero">
     <tspan fill="#B1FFFF" id="svg_14" x="-186.28001" y="11.61648">Peixplorer</tspan>
    </text>
   </g>
  </g>
 </g>

</svg>