<?xml version="1.0" encoding="UTF-8" standalone="no" ?>
<!DOCTYPE svg PUBLIC "-//W3C//DTD SVG 1.1//EN" "http://www.w3.org/Graphics/SVG/1.1/DTD/svg11.dtd">
<svg xmlns="http://www.w3.org/2000/svg" xmlns:xlink="http://www.w3.org/1999/xlink" version="1.1" width="500" height="150" viewBox="0 0 500 150" xml:space="preserve">
<desc>Created with Fabric.js 5.2.4</desc>
<defs>
</defs>
<rect x="0" y="0" width="100%" height="100%" fill="transparent"></rect>
<g transform="matrix(1 0 0 1 250 75)" id="e6fc5f37-18b9-42d0-9818-2635866142fb"  >
<rect style="stroke: none; stroke-width: 1; stroke-dasharray: none; stroke-linecap: butt; stroke-dashoffset: 0; stroke-linejoin: miter; stroke-miterlimit: 4; fill: rgb(255,255,255); fill-rule: nonzero; opacity: 1; visibility: hidden;" vector-effect="non-scaling-stroke"  x="-250" y="-75" rx="0" ry="0" width="500" height="150" />
</g>
<g transform="matrix(Infinity NaN NaN Infinity 0 0)" id="eae6e991-3658-465c-b23b-4d0cf436d207"  >
</g>
<g transform="matrix(0.2 0 0 0.2 93.24 75)"  >
<g style="" vector-effect="non-scaling-stroke"   >
		<g transform="matrix(1.85 0 0 1.85 0 0)"  >
<path style="stroke: none; stroke-width: 1; stroke-dasharray: none; stroke-linecap: butt; stroke-dashoffset: 0; stroke-linejoin: miter; stroke-miterlimit: 4; fill: rgb(0,0,0); fill-rule: nonzero; opacity: 1;" vector-effect="non-scaling-stroke"  transform=" translate(-216.03, -216.03)" d="M 431.503 214.091 C 417.659 178.988 394.512 148.572 364.562 126.13100000000001 C 334.435 103.55800000000002 298.891 90.23800000000001 261.67 87.55600000000001 L 184.90200000000002 48.74200000000001 C 184.751 48.66500000000001 184.596 48.59300000000001 184.44000000000003 48.52600000000001 C 180.97000000000003 47.04100000000001 177.42300000000003 46.28900000000001 173.89700000000002 46.28900000000001 C 159.65800000000002 46.28900000000001 148.919 58.28000000000001 148.919 74.18100000000001 C 148.919 84.44000000000001 153.61 93.23100000000001 159.043 103.40900000000002 C 159.727 104.69100000000002 160.42000000000002 105.99000000000002 161.118 107.31700000000002 C 129.039 123.29900000000002 101.24799999999999 148.33 81.636 178.90800000000002 L 29.175999999999995 146.745 C 28.844999999999995 146.542 28.498999999999995 146.364 28.141999999999996 146.21 C 25.419999999999995 145.04500000000002 22.625999999999998 144.455 19.837999999999994 144.455 C 8.528 144.454 0 153.856 0 166.324 C 0 180.865 16.277 205.769 24.2 217.02800000000002 C 16.277 228.286 0 253.19 0 267.731 C 0 280.199 8.528 289.601 19.838 289.601 C 22.626 289.601 25.421 289.01 28.144 287.845 C 28.5 287.692 28.845999999999997 287.51300000000003 29.177 287.31100000000004 L 81.632 255.15200000000004 C 101.19 285.76400000000007 128.08100000000002 310.12500000000006 160.097 326.235 C 159.568 327.27000000000004 159.044 328.288 158.526 329.29400000000004 C 153.372 339.29600000000005 148.92100000000002 347.93500000000006 148.92100000000002 357.88000000000005 C 148.92100000000002 373.77900000000005 159.65800000000002 385.77000000000004 173.89800000000002 385.7710000000001 C 173.89900000000003 385.7710000000001 173.90000000000003 385.7710000000001 173.901 385.7710000000001 C 177.425 385.7710000000001 180.972 385.0180000000001 184.442 383.5330000000001 C 184.606 383.4630000000001 184.768 383.38700000000006 184.92600000000002 383.3060000000001 L 256.515 346.8260000000001 C 333.882 343.2950000000001 402.43899999999996 293.6640000000001 431.504 219.96100000000007 C 432.246 218.075 432.246 215.977 431.503 214.091 z M 322.279 314.593 C 300.164 291.57 287.028 254.709 287.028 215.31300000000002 C 287.028 197.15400000000002 289.72400000000005 179.674 295.041 163.36 C 296.41 159.15900000000002 294.114 154.644 289.913 153.275 C 285.714 151.909 281.197 154.201 279.82800000000003 158.40200000000002 C 273.98900000000003 176.32000000000002 271.028 195.467 271.028 215.31300000000002 C 271.028 256.221 284.156 294.934 306.49800000000005 320.98900000000003 C 289.86400000000003 326.82800000000003 272.261 330.25100000000003 254.14700000000005 330.91 C 252.98400000000004 330.952 251.84300000000005 331.24800000000005 250.80600000000004 331.77700000000004 L 177.92500000000004 368.91600000000005 C 176.53300000000004 369.48400000000004 175.18000000000004 369.77200000000005 173.89800000000005 369.77200000000005 C 173.89800000000005 369.77200000000005 173.89800000000005 369.77200000000005 173.89700000000005 369.77200000000005 C 168.69500000000005 369.77200000000005 164.91900000000004 364.7710000000001 164.91900000000004 357.88100000000003 C 164.91900000000004 351.81500000000005 168.20200000000003 345.44300000000004 172.74700000000004 336.62300000000005 C 174.38400000000004 333.446 176.23900000000003 329.845 178.09100000000004 325.934 C 179.00800000000004 323.995 179.10900000000004 321.76700000000005 178.36900000000003 319.75300000000004 C 177.62900000000002 317.73900000000003 176.11100000000002 316.107 174.15600000000003 315.22200000000004 C 139.43500000000003 299.51700000000005 110.74200000000003 273.543 91.18000000000004 240.10600000000005 C 90.09400000000004 238.25000000000006 88.30700000000003 236.90900000000005 86.22100000000003 236.38600000000005 C 85.57800000000003 236.22500000000005 84.92600000000003 236.14600000000004 84.27500000000003 236.14600000000004 C 82.81200000000004 236.14600000000004 81.36300000000003 236.54800000000003 80.09300000000003 237.32600000000005 L 21.40200000000003 273.30800000000005 C 20.84600000000003 273.50300000000004 20.32100000000003 273.60100000000006 19.837000000000028 273.60100000000006 C 17.577000000000027 273.60100000000006 15.999000000000027 271.18700000000007 15.999000000000027 267.73100000000005 C 15.999000000000027 258.85900000000004 30.319000000000027 235.52500000000003 40.48800000000003 221.78900000000004 C 42.58200000000003 218.96100000000004 42.58200000000003 215.09500000000006 40.48800000000003 212.26700000000005 C 30.32 198.531 16 175.196 16 166.324 C 16 162.86700000000002 17.578 160.454 19.839 160.454 C 20.323 160.454 20.848 160.55200000000002 21.404 160.746 L 80.093 196.728 C 81.926 197.853 84.135 198.19 86.221 197.667 C 88.307 197.144 90.09400000000001 195.803 91.18 193.947 C 110.67800000000001 160.621 140.524 133.775 175.221 118.35300000000001 C 177.20000000000002 117.474 178.737 115.831 179.483 113.798 C 180.228 111.766 180.119 109.518 179.178 107.568 C 177.108 103.274 175.01 99.342 173.158 95.874 C 168.375 86.91199999999999 164.91899999999998 80.43599999999999 164.91899999999998 74.179 C 164.91899999999998 67.288 168.694 62.287000000000006 173.897 62.287000000000006 C 175.182 62.287000000000006 176.541 62.57600000000001 177.93599999999998 63.14600000000001 L 255.89899999999997 102.56400000000001 C 256.86499999999995 103.05300000000001 257.91999999999996 103.34 259.00199999999995 103.409 C 274.50499999999994 104.394 289.703 107.396 304.27899999999994 112.284 C 300.41499999999996 117.06200000000001 296.81399999999996 122.251 293.52899999999994 127.807 C 291.28099999999995 131.61 292.54099999999994 136.516 296.34399999999994 138.76500000000001 C 297.6209999999999 139.52100000000002 299.02399999999994 139.88000000000002 300.4069999999999 139.88000000000002 C 303.14199999999994 139.88000000000002 305.80799999999994 138.47600000000003 307.3019999999999 135.95000000000002 C 311.1239999999999 129.48600000000002 315.4049999999999 123.60700000000001 320.0529999999999 118.42400000000002 C 332.3239999999999 123.88300000000002 344.0339999999999 130.741 354.96699999999987 138.93300000000002 C 381.70599999999985 158.96800000000002 402.5629999999999 185.92000000000002 415.4329999999999 217.024 C 397.18 261.144 363.465 295.576 322.279 314.593 z" stroke-linecap="round" />
</g>
		<g transform="matrix(1.85 0 0 1.85 237.06 -42.86)"  >
<path style="stroke: none; stroke-width: 1; stroke-dasharray: none; stroke-linecap: butt; stroke-dashoffset: 0; stroke-linejoin: miter; stroke-miterlimit: 4; fill: rgb(0,0,0); fill-rule: nonzero; opacity: 1;" vector-effect="non-scaling-stroke"  transform=" translate(-344.06, -192.88)" d="M 344.061 169.065 C 330.929 169.065 320.246 179.749 320.246 192.881 C 320.246 206.013 330.93 216.697 344.061 216.697 C 357.19199999999995 216.697 367.876 206.013 367.876 192.881 C 367.876 179.749 357.192 169.065 344.061 169.065 z M 344.061 200.697 C 339.751 200.697 336.246 197.191 336.246 192.881 C 336.246 188.571 339.75199999999995 185.065 344.061 185.065 C 348.37 185.065 351.876 188.571 351.876 192.881 C 351.876 197.191 348.37 200.697 344.061 200.697 z" stroke-linecap="round" />
</g>
</g>
</g>
<g transform="matrix(0.74 0 0 0.74 308.72 75)" style="" id="601330bc-3c56-4d78-8e84-1791ee7019e6"  >
		<text xml:space="preserve" font-family="Alegreya" font-size="80" font-style="normal" font-weight="700" style="stroke: none; stroke-width: 1; stroke-dasharray: none; stroke-linecap: butt; stroke-dashoffset: 0; stroke-linejoin: miter; stroke-miterlimit: 4; fill: rgb(0,0,0); fill-rule: nonzero; opacity: 1; white-space: pre;" ><tspan x="-175.28" y="25.13" >Peixplorer</tspan></text>
</g>
</svg>